<svg width="100" height="100" viewBox="0 0 100 100" fill="none" xmlns="http://www.w3.org/2000/svg">
  <rect width="100" height="100" rx="20" fill="#0D0F1A"/>
  <path d="M50 22C34.536 22 22 34.536 22 50C22 65.464 34.536 78 50 78C65.464 78 78 65.464 78 50C78 34.536 65.464 22 50 22ZM50 72C37.85 72 28 62.15 28 50C28 37.85 37.85 28 50 28C62.15 28 72 37.85 72 50C72 62.15 62.15 72 50 72Z" fill="#00FFD0"/>
  <path d="M50 34C41.164 34 34 41.164 34 50C34 58.836 41.164 66 50 66C58.836 66 66 58.836 66 50C66 41.164 58.836 34 50 34ZM50 60C44.477 60 40 55.523 40 50C40 44.477 44.477 40 50 40C55.523 40 60 44.477 60 50C60 55.523 55.523 60 50 60Z" fill="#00FFD0"/>
  <circle cx="50" cy="50" r="6" fill="#00FFD0"/>
  <circle cx="28" cy="28" r="4" fill="#00FFD0"/>
  <circle cx="72" cy="28" r="4" fill="#00FFD0"/>
  <circle cx="28" cy="72" r="4" fill="#00FFD0"/>
  <circle cx="72" cy="72" r="4" fill="#00FFD0"/>
</svg>